<svg width="25" height="22" viewBox="0 0 25 22" fill="none" xmlns="http://www.w3.org/2000/svg">
<path d="M10.8302 14.9248H4.52943" stroke="black" stroke-width="1.5" stroke-linecap="round" stroke-linejoin="round"/>
<path d="M13.6405 6.20664H19.9412" stroke="black" stroke-width="1.5" stroke-linecap="round" stroke-linejoin="round"/>
<path fill-rule="evenodd" clip-rule="evenodd" d="M9.22629 6.15798C9.22629 4.99258 8.16813 4.04761 6.86314 4.04761C5.55816 4.04761 4.5 4.99258 4.5 6.15798C4.5 7.32338 5.55816 8.26836 6.86314 8.26836C8.16813 8.26836 9.22629 7.32338 9.22629 6.15798Z" stroke="black" stroke-width="1.5" stroke-linecap="round" stroke-linejoin="round"/>
<path fill-rule="evenodd" clip-rule="evenodd" d="M20.5 14.8896C20.5 13.7242 19.4427 12.7792 18.1377 12.7792C16.8319 12.7792 15.7737 13.7242 15.7737 14.8896C15.7737 16.055 16.8319 16.9999 18.1377 16.9999C19.4427 16.9999 20.5 16.055 20.5 14.8896Z" stroke="black" stroke-width="1.5" stroke-linecap="round" stroke-linejoin="round"/>
</svg>
